<svg id="svg" version="1.1" width="1407" height="768" xmlns="http://www.w3.org/2000/svg" xmlns:xlink="http://www.w3.org/1999/xlink" ><g id="svgg"><path id="path0" d="M108.978 21.535 C 108.041 29.155,108.976 38.792,111.187 44.322 C 112.798 48.350,116.808 55.185,118.252 56.363 C 118.682 56.714,120.748 58.477,122.843 60.280 C 129.315 65.852,142.400 76.316,142.620 76.096 C 142.661 76.055,142.186 74.787,141.565 73.278 C 139.770 68.919,138.966 65.425,138.304 59.113 C 138.145 57.592,138.024 57.399,135.277 54.280 C 125.948 43.684,117.600 32.490,110.434 20.967 C 109.347 19.218,109.258 19.252,108.978 21.535 M289.678 21.092 C 282.298 32.819,275.356 42.214,266.528 52.420 C 261.728 57.970,262.077 57.386,261.790 60.361 C 261.302 65.407,260.109 70.065,258.268 74.105 C 257.740 75.262,257.463 76.120,257.652 76.010 C 259.217 75.101,270.800 65.858,277.007 60.564 C 279.488 58.448,281.820 56.484,282.188 56.200 C 283.079 55.514,286.267 50.186,288.049 46.409 C 291.157 39.820,292.350 31.336,291.369 22.792 C 290.975 19.357,290.849 19.231,289.678 21.092 M105.861 54.513 C 105.940 54.787,106.217 56.098,106.478 57.427 C 108.238 66.390,115.387 77.987,120.540 80.236 C 127.713 83.368,148.676 91.827,149.264 91.827 C 149.486 91.827,149.535 91.568,149.408 91.062 C 149.302 90.641,149.168 88.979,149.111 87.368 C 149.053 85.757,148.932 84.320,148.841 84.174 C 148.688 83.925,139.950 77.795,129.495 70.601 C 120.099 64.136,114.301 60.066,110.246 57.087 C 105.822 53.838,105.637 53.730,105.861 54.513 M290.547 56.629 C 284.832 60.811,281.788 62.963,273.348 68.791 C 256.884 80.156,251.926 83.633,251.515 84.098 C 250.753 84.961,250.688 91.878,251.444 91.660 C 252.401 91.385,269.527 84.530,275.338 82.097 L 280.739 79.835 282.911 77.603 C 288.758 71.592,292.157 65.153,293.819 56.933 C 294.471 53.710,294.528 53.715,290.547 56.629 M183.369 64.908 C 174.222 70.422,165.855 75.469,164.775 76.124 L 162.813 77.316 160.938 75.993 C 153.841 70.989,146.531 65.191,142.765 61.579 L 141.252 60.128 141.445 61.265 C 143.012 70.523,145.194 75.674,149.794 80.976 L 152.097 83.630 152.097 85.675 C 152.097 92.698,154.586 99.740,158.826 104.713 L 160.724 106.939 160.666 110.399 C 160.635 112.302,160.693 116.449,160.794 119.614 L 160.979 125.369 180.391 137.027 C 191.068 143.439,199.940 148.685,200.108 148.685 C 200.275 148.685,202.430 147.491,204.897 146.031 C 213.667 140.840,235.852 127.525,237.740 126.318 L 239.659 125.093 239.659 115.759 L 239.659 106.425 240.401 105.735 C 244.664 101.778,247.632 94.491,248.073 86.901 L 248.274 83.440 250.318 81.023 C 253.751 76.964,255.124 74.598,256.669 70.078 C 257.379 68.000,259.092 60.546,258.900 60.374 C 258.872 60.349,256.802 62.123,254.300 64.316 C 249.784 68.275,245.864 71.354,240.331 75.287 L 237.449 77.335 232.229 74.113 C 226.058 70.305,200.754 55.147,200.308 54.991 C 200.139 54.932,192.516 59.395,183.369 64.908 M199.003 64.037 L 199.001 70.078 191.967 71.601 C 188.098 72.438,181.169 73.945,176.570 74.949 C 171.971 75.953,168.115 76.740,168.002 76.696 C 167.815 76.624,175.696 71.837,192.566 61.774 C 196.029 59.708,198.895 58.013,198.934 58.007 C 198.973 58.001,199.004 60.714,199.003 64.037 M207.392 61.552 C 224.260 71.509,233.997 77.484,232.498 76.959 C 231.890 76.746,208.752 71.609,204.478 70.738 L 201.279 70.086 201.279 64.024 C 201.279 60.690,201.375 58.015,201.493 58.079 C 201.610 58.143,204.264 59.706,207.392 61.552 M192.244 64.983 C 188.711 66.744,188.565 69.032,192.062 67.840 C 192.779 67.596,193.254 67.537,193.150 67.706 C 192.867 68.164,190.710 69.070,189.886 69.077 C 189.464 69.081,188.862 69.401,188.465 69.834 L 187.775 70.584 189.055 70.391 C 192.756 69.834,196.967 66.507,196.271 64.693 C 196.001 63.988,193.943 64.137,192.244 64.983 M207.654 65.901 C 206.227 67.769,206.465 68.081,209.950 68.924 C 211.282 69.246,212.128 69.627,212.509 70.074 C 213.301 71.007,215.118 71.395,214.656 70.533 C 214.396 70.047,214.418 69.936,214.773 69.936 C 215.546 69.936,215.238 69.350,214.247 68.936 C 213.685 68.701,212.679 67.773,211.832 66.709 C 209.876 64.251,209.037 64.089,207.654 65.901 M194.172 65.783 C 194.172 66.179,191.952 67.243,191.685 66.975 C 191.403 66.694,191.899 65.937,192.531 65.683 C 193.494 65.296,194.172 65.337,194.172 65.783 M187.130 66.352 C 185.277 67.133,184.152 68.133,185.477 67.822 L 186.305 67.627 185.548 68.640 C 185.131 69.196,184.439 70.122,184.009 70.696 L 183.227 71.741 184.221 71.542 C 185.399 71.307,185.630 71.075,187.736 68.017 C 189.470 65.500,189.428 65.384,187.130 66.352 M210.709 67.467 C 210.988 67.989,210.941 68.016,210.075 67.843 C 208.883 67.605,208.841 67.552,209.279 66.851 C 209.678 66.212,210.145 66.413,210.709 67.467 M198.059 72.708 C 197.929 72.928,185.127 95.259,179.002 105.951 C 176.538 110.253,175.486 111.855,175.319 111.557 C 174.720 110.486,163.440 80.104,163.587 79.957 C 163.658 79.886,170.153 78.443,178.020 76.748 C 185.887 75.054,193.412 73.416,194.741 73.107 C 197.408 72.488,198.250 72.387,198.059 72.708 M219.706 76.163 C 228.981 78.180,236.636 79.895,236.716 79.976 C 236.906 80.166,225.345 111.298,224.900 111.794 C 224.797 111.909,220.752 105.083,215.910 96.625 C 203.095 74.238,202.127 72.495,202.502 72.496 C 202.690 72.497,210.431 74.147,219.706 76.163 M206.457 84.293 C 213.356 96.435,222.217 111.879,222.761 112.709 L 223.235 113.433 200.317 113.433 C 187.712 113.433,177.399 113.371,177.399 113.295 C 177.399 113.159,198.958 75.258,199.781 73.947 L 200.207 73.268 200.990 74.658 C 201.420 75.423,203.880 79.758,206.457 84.293 M219.475 80.311 C 219.120 80.739,220.015 81.833,220.753 81.873 C 220.910 81.882,219.704 82.590,218.075 83.448 C 214.506 85.326,214.788 85.051,215.338 86.114 C 215.931 87.260,215.735 87.304,220.331 85.002 C 224.773 82.776,224.853 82.666,222.956 81.406 C 220.499 79.774,220.041 79.630,219.475 80.311 M175.124 83.240 C 172.728 84.534,171.319 90.359,173.700 89.127 C 174.301 88.817,174.513 88.459,174.635 87.553 C 175.170 83.563,177.367 84.737,178.130 89.420 C 178.583 92.201,179.111 93.249,180.060 93.248 C 180.848 93.247,184.370 86.384,183.797 85.965 C 182.909 85.315,182.598 85.495,181.478 87.310 C 180.280 89.250,180.267 89.243,179.674 86.329 C 179.081 83.409,177.190 82.126,175.124 83.240 M113.433 83.492 C 113.433 84.156,116.604 89.424,118.194 91.400 C 121.572 95.598,127.313 99.772,131.628 101.168 C 132.491 101.447,147.850 102.331,152.012 102.342 L 153.492 102.345 152.390 100.000 C 151.784 98.710,151.036 97.062,150.728 96.337 C 150.231 95.169,150.011 94.970,148.787 94.577 C 148.027 94.333,142.992 92.773,137.598 91.110 C 132.203 89.447,124.559 87.029,120.611 85.736 C 116.663 84.443,113.433 83.433,113.433 83.492 M282.729 84.730 C 280.057 85.681,273.068 87.882,253.683 93.877 L 249.940 95.035 249.448 96.345 C 249.178 97.065,248.464 98.643,247.861 99.852 C 247.259 101.060,246.766 102.133,246.766 102.237 C 246.766 102.425,250.876 102.295,261.976 101.755 L 267.946 101.465 270.887 100.055 C 277.635 96.822,281.617 92.976,285.518 85.923 C 287.055 83.146,287.112 83.170,282.729 84.730 M237.452 103.497 C 237.392 118.309,237.302 122.231,237.025 122.069 C 236.223 121.598,228.082 115.550,227.344 114.876 C 226.368 113.983,226.254 114.492,229.129 106.894 C 230.401 103.532,232.668 97.456,234.167 93.390 C 235.666 89.325,237.000 85.711,237.132 85.359 C 237.263 85.007,237.406 84.719,237.449 84.719 C 237.492 84.719,237.493 93.169,237.452 103.497 M165.322 90.974 C 166.524 94.179,168.569 99.680,169.868 103.198 C 171.166 106.716,172.618 110.639,173.095 111.915 L 173.962 114.234 168.431 118.385 L 162.900 122.535 162.900 103.722 C 162.900 93.375,162.953 84.962,163.019 85.028 C 163.084 85.093,164.121 87.769,165.322 90.974 M219.555 87.748 L 218.925 88.187 219.662 89.652 C 220.068 90.457,220.639 91.455,220.932 91.870 C 221.615 92.839,221.617 92.831,220.611 93.248 C 219.597 93.668,219.617 93.545,220.354 94.793 C 220.914 95.742,220.984 95.777,221.554 95.378 C 222.376 94.802,222.813 94.845,223.028 95.522 C 223.237 96.183,223.702 96.246,224.431 95.713 C 224.856 95.402,224.890 95.227,224.623 94.728 C 224.336 94.192,224.399 94.068,225.158 93.676 C 226.462 93.001,225.656 91.386,224.156 91.667 C 223.289 91.830,223.151 91.761,222.735 90.958 C 222.125 89.778,222.007 89.789,225.657 90.680 C 227.416 91.110,228.856 91.366,228.856 91.250 C 228.856 89.664,228.155 89.204,224.273 88.242 C 219.838 87.144,220.344 87.197,219.555 87.748 M192.368 94.516 C 191.354 94.877,189.908 95.964,189.908 96.364 C 189.908 97.182,191.676 97.533,192.874 96.953 C 194.264 96.280,195.430 96.392,195.885 97.242 C 196.356 98.123,195.757 99.029,193.057 101.519 C 190.818 103.584,190.476 104.022,190.476 104.828 L 190.476 105.757 194.883 105.757 L 199.289 105.757 199.289 105.069 C 199.289 103.595,199.103 103.483,196.652 103.483 L 194.359 103.483 196.123 101.887 C 200.837 97.621,198.197 92.437,192.368 94.516 M203.748 94.500 C 199.514 96.060,199.114 103.427,203.152 105.485 C 206.796 107.343,210.370 104.651,210.375 100.042 C 210.380 95.885,207.202 93.227,203.748 94.500 M207.052 97.797 C 208.195 100.015,207.158 103.767,205.402 103.767 C 203.332 103.767,202.333 99.048,204.011 97.194 C 204.861 96.255,206.416 96.563,207.052 97.797 M165.800 98.723 C 165.590 98.976,165.662 99.531,166.050 100.631 C 166.350 101.484,166.596 102.235,166.596 102.301 C 166.596 102.366,166.159 102.349,165.625 102.262 C 163.188 101.867,162.669 108.365,165.079 109.099 C 165.731 109.298,165.790 108.073,165.169 107.232 C 163.949 105.582,165.310 103.220,166.687 104.598 C 167.033 104.943,168.583 105.019,168.590 104.691 C 168.600 104.229,166.464 98.365,166.286 98.365 C 166.182 98.365,165.963 98.526,165.800 98.723 M232.758 102.275 C 231.346 103.835,231.286 108.731,232.672 109.263 C 233.651 109.639,234.815 108.334,234.835 106.837 C 234.843 106.230,234.865 106.221,235.152 106.714 C 235.542 107.386,235.325 109.056,234.668 110.441 C 234.331 111.151,234.248 111.649,234.422 111.925 C 235.714 113.974,237.011 108.095,236.015 104.704 C 235.326 102.359,233.747 101.182,232.758 102.275 M233.975 104.339 C 234.436 105.200,234.036 106.894,233.373 106.894 C 232.757 106.894,232.607 105.295,233.130 104.317 C 233.499 103.627,233.595 103.630,233.975 104.339 M147.122 105.626 C 144.151 105.824,139.033 106.142,135.750 106.332 C 132.466 106.523,129.346 106.762,128.817 106.863 L 127.853 107.048 130.173 108.876 C 137.284 114.477,144.052 116.048,151.101 113.734 C 152.978 113.118,155.836 112.214,157.453 111.724 L 160.393 110.834 158.719 109.077 C 157.798 108.111,156.684 106.841,156.243 106.254 C 155.307 105.010,155.814 105.045,147.122 105.626 M243.056 107.293 C 242.093 108.466,240.999 109.627,240.624 109.873 C 239.773 110.430,239.760 110.782,240.583 111.025 C 240.935 111.129,243.845 112.057,247.050 113.088 C 253.442 115.144,253.787 115.185,258.243 114.422 C 261.031 113.944,264.205 112.739,266.809 111.171 C 268.584 110.101,272.385 107.116,272.203 106.934 C 272.115 106.846,259.724 106.033,247.990 105.346 L 244.807 105.160 243.056 107.293 M167.402 108.771 C 166.536 110.319,165.756 111.788,165.670 112.035 C 165.514 112.481,166.705 114.286,167.154 114.286 C 167.557 114.286,167.757 113.378,167.439 112.995 C 167.213 112.723,167.479 111.992,168.468 110.162 C 169.752 107.789,169.786 107.664,169.390 106.826 L 168.978 105.956 167.402 108.771 M217.950 122.175 C 215.248 125.732,210.184 132.448,206.697 137.100 C 203.209 141.752,200.264 145.558,200.152 145.558 C 200.040 145.558,197.385 142.136,194.253 137.953 C 184.997 125.593,178.511 117.031,177.885 116.347 L 177.300 115.707 200.082 115.707 L 222.863 115.707 217.950 122.175 M184.090 127.932 C 188.754 134.108,193.390 140.235,194.394 141.548 C 195.398 142.861,196.027 143.861,195.792 143.771 C 195.557 143.681,188.476 139.464,180.056 134.400 C 171.636 129.336,164.507 125.059,164.213 124.896 C 163.748 124.637,164.410 124.044,169.330 120.319 C 173.565 117.113,175.061 116.123,175.297 116.371 C 175.470 116.553,179.427 121.756,184.090 127.932 M231.130 120.384 C 234.023 122.528,236.418 124.368,236.452 124.473 C 236.506 124.633,233.210 126.663,221.322 133.791 C 220.384 134.354,216.610 136.609,212.935 138.802 C 209.261 140.995,205.807 143.058,205.259 143.386 L 204.264 143.981 204.807 143.135 C 205.106 142.669,206.331 141.009,207.530 139.446 C 208.729 137.882,212.510 132.893,215.932 128.358 C 219.355 123.824,222.855 119.191,223.711 118.062 C 224.689 116.773,225.379 116.099,225.569 116.248 C 225.735 116.378,228.237 118.239,231.130 120.384 M197.640 122.153 C 195.989 122.966,195.387 124.988,196.417 126.260 C 196.949 126.918,196.948 126.934,196.274 127.735 C 194.893 129.376,195.845 131.844,198.099 132.471 C 202.812 133.779,206.686 130.353,203.932 127.311 C 203.499 126.831,203.502 126.754,203.983 126.222 C 206.357 123.600,201.294 120.352,197.640 122.153 M172.779 122.837 C 170.549 124.136,174.593 128.500,178.026 128.500 C 180.658 128.500,181.110 127.081,179.253 124.646 C 177.933 122.915,174.360 121.917,172.779 122.837 M227.478 123.259 C 227.253 123.751,226.984 123.943,226.650 123.848 C 223.658 123.001,221.761 123.380,221.149 124.947 C 221.010 125.302,227.467 125.944,227.844 125.613 C 228.224 125.279,229.106 122.875,228.918 122.687 C 228.528 122.297,227.780 122.595,227.478 123.259 M201.507 124.009 C 202.429 124.931,201.163 126.422,199.757 126.069 C 197.880 125.598,198.138 123.667,200.079 123.667 C 200.677 123.667,201.319 123.821,201.507 124.009 M177.658 125.028 C 178.777 125.863,178.632 126.633,177.335 126.740 C 175.397 126.901,173.180 125.238,174.312 124.473 C 174.890 124.083,176.823 124.404,177.658 125.028 M219.456 127.861 C 216.942 129.136,215.327 131.800,216.486 132.762 C 217.566 133.659,220.546 131.966,221.373 129.986 C 221.589 129.469,221.890 129.123,222.041 129.216 C 222.564 129.539,222.315 130.473,221.442 131.467 C 220.088 133.009,220.752 133.612,222.336 132.279 C 226.114 129.099,223.853 125.630,219.456 127.861 M201.500 128.374 C 202.743 129.245,201.837 130.775,200.079 130.775 C 199.279 130.775,198.152 129.915,198.152 129.305 C 198.152 128.102,200.271 127.513,201.500 128.374 M220.260 129.578 C 220.392 129.976,218.981 131.343,218.438 131.343 C 217.821 131.343,217.992 130.525,218.771 129.746 C 219.493 129.024,220.054 128.961,220.260 129.578 M179.416 130.240 C 178.258 130.374,177.275 130.519,177.231 130.563 C 176.926 130.868,179.253 133.049,179.883 133.049 C 180.584 133.049,180.594 133.027,180.124 132.508 C 179.647 131.980,179.698 131.961,182.066 131.764 L 184.497 131.561 183.914 130.741 C 183.268 129.835,183.084 129.814,179.416 130.240 M131.356 160.634 C 123.146 162.360,120.246 172.607,126.382 178.214 C 130.406 181.892,137.831 181.966,141.323 178.363 L 142.270 177.387 140.794 175.911 L 139.318 174.435 138.529 175.191 C 134.653 178.904,127.932 176.099,127.932 170.769 C 127.932 165.430,133.909 162.473,138.050 165.763 C 139.409 166.843,139.528 166.826,140.989 165.337 C 142.422 163.877,142.389 163.568,140.673 162.407 C 138.115 160.675,134.465 159.980,131.356 160.634 M217.977 160.650 C 211.648 162.142,210.306 169.207,215.908 171.547 C 216.411 171.757,218.032 172.205,219.511 172.542 C 223.767 173.511,225.144 174.874,223.433 176.423 C 222.142 177.592,217.185 177.161,214.750 175.668 C 213.558 174.937,213.625 174.901,212.665 176.803 C 211.726 178.663,211.716 178.636,213.670 179.620 C 219.770 182.692,227.979 180.681,228.876 175.895 C 229.592 172.081,227.499 170.171,221.027 168.729 C 217.516 167.947,216.305 166.638,217.752 165.190 C 218.869 164.074,222.809 164.042,225.267 165.130 L 226.619 165.728 227.311 164.163 C 228.184 162.190,228.181 162.154,227.125 161.608 C 225.071 160.545,220.468 160.064,217.977 160.650 M292.822 160.664 C 281.284 162.553,281.434 178.968,293.005 180.817 C 296.007 181.296,299.361 180.673,301.706 179.199 L 302.772 178.529 302.772 174.552 L 302.772 170.576 301.350 170.576 L 299.929 170.576 299.929 173.861 L 299.929 177.146 298.579 177.766 C 294.353 179.704,288.512 177.211,287.456 173.018 C 285.657 165.873,292.458 160.706,299.146 164.137 L 301.187 165.184 302.034 164.338 C 303.381 162.990,300.917 161.215,296.895 160.633 C 294.718 160.318,294.941 160.317,292.822 160.664 M42.928 161.905 L 42.928 163.184 46.336 163.184 L 49.743 163.184 49.818 171.926 L 49.893 180.668 51.263 180.668 L 52.633 180.668 52.611 171.926 L 52.589 163.184 56.145 163.184 L 59.701 163.184 59.701 161.905 L 59.701 160.625 51.315 160.625 L 42.928 160.625 42.928 161.905 M63.397 170.718 L 63.397 180.810 64.819 180.810 L 66.240 180.810 66.240 176.262 L 66.240 171.713 72.210 171.713 L 78.181 171.713 78.181 176.277 L 78.181 180.841 79.531 180.755 L 80.881 180.668 80.956 170.632 L 81.031 160.595 79.535 160.682 L 78.038 160.768 78.027 163.611 C 78.020 165.174,77.988 167.061,77.956 167.804 L 77.896 169.154 72.068 169.154 L 66.240 169.154 66.240 164.890 L 66.240 160.625 64.819 160.625 L 63.397 160.625 63.397 170.718 M87.278 170.723 L 87.278 180.820 94.741 180.744 L 102.203 180.668 102.203 179.531 L 102.203 178.394 96.162 178.317 L 90.121 178.240 90.121 174.977 L 90.121 171.713 95.238 171.713 L 100.355 171.713 100.355 170.434 L 100.355 169.154 95.238 169.154 L 90.121 169.154 90.121 166.169 L 90.121 163.184 95.807 163.184 L 101.493 163.184 101.493 161.905 L 101.493 160.625 94.385 160.625 L 87.278 160.625 87.278 170.723 M114.570 170.718 L 114.570 180.810 116.799 180.810 L 119.029 180.810 119.199 170.947 C 119.292 165.522,119.305 160.981,119.227 160.855 C 119.149 160.729,118.069 160.625,116.828 160.625 L 114.570 160.625 114.570 170.718 M151.839 161.254 C 151.701 161.612,150.887 163.440,150.030 165.316 C 145.217 175.852,143.284 180.201,143.284 180.488 C 143.284 180.702,144.076 180.810,145.645 180.810 L 148.007 180.810 148.846 178.749 L 149.684 176.688 154.457 176.610 L 159.230 176.532 160.205 178.671 L 161.180 180.810 163.603 180.810 C 164.936 180.810,166.027 180.703,166.027 180.571 C 166.027 180.359,163.965 175.812,158.658 164.321 L 157.017 160.768 154.554 160.685 C 152.214 160.607,152.078 160.636,151.839 161.254 M168.870 170.704 L 168.870 180.833 171.215 180.751 L 173.561 180.668 173.642 177.896 L 173.724 175.124 175.774 175.137 L 177.825 175.149 179.751 177.980 L 181.678 180.810 184.229 180.810 C 187.283 180.810,187.237 181.091,184.756 177.575 C 182.219 173.980,182.283 174.217,183.606 173.342 C 186.910 171.155,187.123 165.198,183.989 162.615 C 182.104 161.061,180.947 160.824,174.627 160.693 L 168.870 160.575 168.870 170.704 M190.192 167.296 C 190.192 173.396,190.243 174.103,190.795 175.577 C 193.437 182.639,204.554 183.054,207.695 176.208 L 208.518 174.414 208.524 167.591 L 208.529 160.768 206.183 160.685 L 203.838 160.602 203.832 166.939 C 203.823 175.610,203.156 176.991,199.085 176.762 C 195.473 176.558,195.025 175.485,195.025 167.031 L 195.025 160.625 192.608 160.625 L 190.192 160.625 190.192 167.296 M242.063 160.983 C 241.987 161.179,241.959 165.689,242.000 171.004 L 242.075 180.668 249.538 180.744 L 257.001 180.820 257.001 179.536 L 257.001 178.252 251.031 178.252 L 245.060 178.252 245.060 174.982 L 245.060 171.713 250.178 171.713 L 255.295 171.713 255.295 170.434 L 255.295 169.154 250.178 169.154 L 245.060 169.154 245.060 166.169 L 245.060 163.184 250.746 163.184 L 256.432 163.184 256.432 161.905 L 256.432 160.625 249.316 160.625 C 243.865 160.625,242.168 160.709,242.063 160.983 M261.690 165.258 C 261.577 167.807,261.536 172.316,261.597 175.280 L 261.709 180.668 263.188 180.754 L 264.667 180.840 264.743 173.391 L 264.819 165.943 265.956 167.375 C 266.581 168.163,269.314 171.508,272.028 174.809 L 276.964 180.810 278.212 180.810 L 279.460 180.810 279.460 170.718 L 279.460 160.625 278.038 160.625 L 276.617 160.625 276.617 168.017 C 276.617 172.082,276.521 175.408,276.404 175.408 C 276.286 175.407,275.551 174.607,274.770 173.631 C 265.051 161.479,264.275 160.625,262.945 160.625 L 261.894 160.625 261.690 165.258 M308.525 170.632 L 308.600 180.668 310.021 180.668 L 311.443 180.668 311.443 170.718 L 311.443 160.768 309.947 160.682 L 308.450 160.595 308.525 170.632 M317.839 170.718 L 317.839 180.810 319.256 180.810 L 320.673 180.810 320.749 173.353 L 320.824 165.896 326.063 172.287 C 328.944 175.802,331.695 179.155,332.175 179.739 C 332.932 180.658,333.211 180.801,334.257 180.805 L 335.466 180.810 335.466 170.718 L 335.466 160.625 334.049 160.625 L 332.632 160.625 332.556 168.188 L 332.480 175.750 331.628 174.610 C 331.158 173.983,328.849 171.123,326.496 168.256 C 324.142 165.388,321.786 162.498,321.260 161.834 C 320.398 160.745,320.181 160.625,319.071 160.625 L 317.839 160.625 317.839 170.718 M341.849 160.983 C 341.774 161.179,341.746 165.689,341.787 171.004 L 341.862 180.668 349.325 180.744 L 356.787 180.820 356.787 179.536 L 356.787 178.252 350.817 178.252 L 344.847 178.252 344.847 174.982 L 344.847 171.713 349.964 171.713 L 355.082 171.713 355.082 170.434 L 355.082 169.154 349.964 169.154 L 344.847 169.154 344.847 166.169 L 344.847 163.184 350.533 163.184 L 356.219 163.184 356.219 161.905 L 356.219 160.625 349.103 160.625 C 343.652 160.625,341.954 160.709,341.849 160.983 M179.670 165.030 C 180.833 165.632,181.379 166.541,181.379 167.875 C 181.379 170.229,179.909 171.144,176.129 171.144 L 173.703 171.144 173.703 167.875 L 173.703 164.606 176.276 164.606 C 178.002 164.606,179.119 164.745,179.670 165.030 M156.041 168.997 C 156.843 170.865,157.498 172.496,157.498 172.622 C 157.498 172.747,156.155 172.850,154.513 172.850 C 152.871 172.850,151.528 172.755,151.528 172.639 C 151.528 172.388,154.466 165.454,154.536 165.540 C 154.563 165.574,155.240 167.129,156.041 168.997 M120.180 189.649 C 115.312 190.793,115.395 197.245,120.293 198.440 C 123.510 199.225,126.226 197.167,126.226 193.944 C 126.226 190.913,123.387 188.896,120.180 189.649 M223.922 189.647 C 218.508 190.950,219.532 198.512,225.125 198.534 C 226.004 198.537,227.203 198.331,227.790 198.076 L 228.856 197.613 228.856 195.731 L 228.856 193.850 228.074 193.940 C 227.347 194.024,227.286 194.133,227.207 195.493 C 227.022 198.683,222.033 197.272,222.033 194.030 C 222.033 191.432,224.996 190.009,227.332 191.485 C 227.863 191.821,228.002 191.801,228.429 191.330 C 228.942 190.762,227.722 189.634,226.581 189.620 C 226.347 189.618,225.899 189.563,225.586 189.500 C 225.274 189.436,224.525 189.502,223.922 189.647 M247.370 189.615 C 243.338 190.604,242.443 195.436,245.862 197.764 C 249.416 200.185,254.362 197.015,253.293 193.001 C 252.610 190.438,250.030 188.963,247.370 189.615 M258.785 189.616 C 253.430 190.884,254.456 198.582,259.974 198.550 C 263.731 198.528,265.950 195.258,264.392 192.040 C 263.497 190.191,260.970 189.098,258.785 189.616 M104.051 194.049 L 104.051 198.474 104.833 198.384 L 105.615 198.294 105.564 195.518 C 105.508 192.389,105.591 192.350,107.065 194.818 C 109.103 198.234,109.065 198.228,110.748 195.311 C 112.514 192.249,112.580 192.259,112.580 195.577 L 112.580 198.436 113.291 198.436 L 114.001 198.436 114.001 194.030 L 114.001 189.623 113.316 189.623 C 112.755 189.623,112.311 190.141,110.856 192.496 L 109.081 195.368 108.116 193.846 C 107.585 193.009,106.774 191.716,106.314 190.974 C 105.676 189.944,105.309 189.623,104.765 189.623 L 104.051 189.623 104.051 194.049 M128.785 194.030 L 128.785 198.436 131.159 198.436 C 135.760 198.436,138.010 196.601,137.453 193.303 C 137.017 190.725,135.191 189.623,131.352 189.623 L 128.785 189.623 128.785 194.030 M139.872 192.618 C 139.872 197.163,140.796 198.536,143.852 198.536 C 146.909 198.536,147.832 197.163,147.832 192.618 L 147.832 189.623 146.979 189.623 L 146.127 189.623 146.127 192.719 C 146.127 196.495,145.816 197.092,143.852 197.092 C 141.889 197.092,141.578 196.495,141.578 192.719 L 141.578 189.623 140.725 189.623 L 139.872 189.623 139.872 192.618 M150.675 194.030 L 150.675 198.436 153.945 198.436 L 157.214 198.436 157.214 197.726 C 157.214 197.023,157.186 197.015,154.797 197.015 L 152.381 197.015 152.381 193.319 L 152.381 189.623 151.528 189.623 L 150.675 189.623 150.675 194.030 M161.796 190.129 C 161.450 190.776,158.067 198.238,158.067 198.355 C 158.067 199.006,159.749 198.266,160.142 197.441 L 160.616 196.446 162.891 196.446 L 165.166 196.446 165.582 197.441 C 165.929 198.270,166.143 198.436,166.865 198.436 C 167.936 198.436,168.072 198.986,165.764 194.010 C 163.669 189.493,162.663 188.510,161.796 190.129 M169.574 189.965 C 169.490 190.183,169.457 192.146,169.501 194.328 L 169.581 198.294 170.362 198.384 C 171.114 198.471,171.144 198.424,171.144 197.176 L 171.144 195.878 172.410 195.878 C 173.590 195.878,173.735 195.964,174.556 197.157 C 175.263 198.186,175.601 198.436,176.275 198.436 C 177.319 198.436,177.317 198.385,176.216 196.852 L 175.318 195.601 176.062 194.911 C 177.467 193.609,177.384 191.484,175.884 190.363 C 174.866 189.603,169.835 189.285,169.574 189.965 M182.800 190.334 C 182.800 190.997,182.896 191.045,184.213 191.045 L 185.626 191.045 185.706 194.670 L 185.785 198.294 186.567 198.384 L 187.349 198.474 187.349 194.774 L 187.349 191.074 188.842 190.989 C 190.142 190.914,190.346 190.820,190.425 190.263 C 190.515 189.627,190.496 189.623,186.658 189.623 L 182.800 189.623 182.800 190.334 M191.380 190.263 C 191.460 190.820,191.663 190.914,192.964 190.989 L 194.456 191.074 194.456 194.755 L 194.456 198.436 195.309 198.436 L 196.162 198.436 196.162 194.756 L 196.162 191.076 197.512 190.989 C 198.665 190.915,198.876 190.809,198.954 190.263 C 199.044 189.626,199.026 189.623,195.167 189.623 C 191.309 189.623,191.290 189.626,191.380 190.263 M200.995 194.030 L 200.995 198.436 201.848 198.436 C 202.669 198.436,202.701 198.389,202.701 197.157 L 202.701 195.878 203.953 195.878 C 205.137 195.878,205.247 195.948,205.955 197.157 C 206.618 198.289,206.820 198.436,207.705 198.436 C 208.812 198.436,208.805 198.387,207.482 196.685 L 206.674 195.645 207.530 194.788 C 208.207 194.111,208.387 193.684,208.387 192.754 C 208.387 190.349,207.236 189.623,203.421 189.623 L 200.995 189.623 200.995 194.030 M210.945 194.030 L 210.945 198.436 211.798 198.436 C 212.616 198.436,212.651 198.385,212.651 197.195 L 212.651 195.954 214.587 195.816 C 217.818 195.584,219.234 193.915,218.233 191.518 C 217.631 190.079,216.462 189.623,213.371 189.623 L 210.945 189.623 210.945 194.030 M234.877 190.263 C 234.956 190.820,235.160 190.914,236.461 190.989 L 237.953 191.074 237.953 194.755 L 237.953 198.436 238.806 198.436 L 239.659 198.436 239.659 194.741 L 239.659 191.045 240.583 191.000 C 241.091 190.975,241.731 190.973,242.004 190.996 C 242.356 191.026,242.502 190.831,242.502 190.331 L 242.502 189.623 238.644 189.623 C 234.806 189.623,234.787 189.627,234.877 190.263 M267.235 194.030 L 267.235 198.436 270.524 198.436 C 273.773 198.436,273.812 198.428,273.723 197.797 C 273.638 197.200,273.473 197.151,271.286 197.075 L 268.941 196.992 268.941 193.308 L 268.941 189.623 268.088 189.623 L 267.235 189.623 267.235 194.030 M275.764 194.049 L 275.764 198.474 276.546 198.384 C 277.241 198.304,277.337 198.164,277.413 197.122 C 277.471 196.339,277.720 195.742,278.162 195.326 L 278.826 194.703 280.351 196.566 C 281.657 198.161,282.009 198.429,282.800 198.433 C 284.041 198.438,284.004 198.336,281.876 195.878 C 279.659 193.317,279.676 193.792,281.734 191.756 C 283.659 189.850,283.758 189.623,282.664 189.623 C 282.077 189.623,281.352 190.157,279.679 191.820 L 277.470 194.017 277.470 191.820 L 277.470 189.623 276.617 189.623 L 275.764 189.623 275.764 194.049 M285.778 193.959 L 285.856 198.294 286.638 198.384 L 287.420 198.474 287.420 194.049 L 287.420 189.623 286.560 189.623 L 285.699 189.623 285.778 193.959 M289.461 190.263 C 289.535 190.783,289.739 190.906,290.547 190.921 C 292.694 190.960,292.537 190.657,292.537 194.759 L 292.537 198.474 293.319 198.384 L 294.101 198.294 294.101 194.691 L 294.101 191.087 295.308 190.907 C 295.972 190.807,296.644 190.805,296.801 190.902 C 296.963 191.002,297.086 190.765,297.086 190.351 L 297.086 189.623 293.228 189.623 C 289.390 189.623,289.371 189.627,289.461 190.263 M122.644 191.157 C 124.599 191.974,125.190 194.470,123.815 196.104 C 122.516 197.648,119.852 197.480,118.821 195.789 C 117.136 193.027,119.696 189.925,122.644 191.157 M174.911 191.547 C 176.304 192.775,175.031 194.456,172.708 194.456 L 171.144 194.456 171.144 192.769 C 171.144 190.720,173.212 190.048,174.911 191.547 M216.418 191.651 C 217.633 193.102,216.570 194.456,214.215 194.456 L 212.651 194.456 212.651 192.771 C 212.651 190.868,212.833 190.711,214.783 190.930 C 215.469 191.007,216.118 191.293,216.418 191.651 M250.524 191.434 C 252.578 192.717,251.986 196.375,249.620 197.012 C 247.469 197.591,245.487 196.161,245.487 194.030 C 245.487 191.522,248.324 190.060,250.524 191.434 M261.397 191.165 C 263.843 192.186,263.832 195.703,261.379 196.867 C 257.818 198.557,255.140 193.371,258.511 191.315 C 259.593 190.656,260.114 190.628,261.397 191.165 M134.445 191.458 C 137.442 193.008,135.703 197.015,132.032 197.015 L 130.206 197.015 130.206 194.030 L 130.206 191.045 131.926 191.045 C 132.874 191.045,134.004 191.230,134.445 191.458 M206.171 191.400 C 207.732 192.627,206.578 194.456,204.244 194.456 L 202.701 194.456 202.701 192.751 L 202.701 191.045 204.210 191.045 C 205.040 191.045,205.923 191.205,206.171 191.400 M163.820 193.248 L 164.529 194.883 163.714 194.972 C 163.266 195.021,162.533 195.021,162.085 194.972 L 161.271 194.883 161.979 193.248 C 162.369 192.349,162.783 191.613,162.900 191.613 C 163.016 191.613,163.431 192.349,163.820 193.248 " stroke="none" fill="#000000" fill-rule="evenodd"></path></g></svg>